# Blender v2.76 (sub 0) OBJ File: 'items.blend'
# www.blender.org
mtllib opener.mtl
o bottle_opener_Plane.002
v 0.450797 0.803594 0.011727
v 0.382292 0.874039 0.011727
v 0.242990 0.915881 0.011727
v 0.473791 0.694479 0.011727
v 0.449982 0.500454 0.011727
v 0.230182 0.777951 0.011727
v 0.317539 0.750112 0.011727
v 0.339238 0.675874 0.011727
v 0.304071 0.487368 0.011727
v 0.185418 0.264873 0.011727
v 0.292010 0.148481 0.011727
v 0.213220 -0.014486 0.011727
v 0.160020 -0.264997 0.011727
v 0.156653 -0.497999 0.011727
v 0.196385 -0.700697 0.011727
v 0.187630 -0.811811 0.011727
v 0.135777 -0.892621 0.011727
v 0.069280 -0.937812 0.011727
v 0.060252 -0.814941 0.011727
v 0.086612 -0.762168 0.011727
v 0.066368 -0.698894 0.011727
v 0.121444 0.079683 0.011727
v 0.070937 -0.186317 0.011727
v 0.054102 -0.580266 0.023104
v 0.102795 -0.853479 0.051515
v 0.147612 -0.761897 0.051515
v 0.112538 -0.611860 0.051515
v 0.104744 -0.364394 0.051515
v 0.145663 -0.056524 0.051515
v 0.221222 0.153918 0.051515
v 0.327237 0.381898 0.051515
v 0.398974 0.592341 0.051515
v 0.395077 0.742378 0.051515
v 0.315826 0.832401 0.051515
v 0.135921 0.847210 0.051515
v -0.450797 0.803594 0.011727
v -0.382292 0.874039 0.011727
v -0.242990 0.915881 0.011727
v -0.473791 0.694479 0.011727
v -0.449982 0.500454 0.011727
v -0.230182 0.777951 0.011727
v -0.317539 0.750112 0.011727
v -0.339238 0.675874 0.011727
v -0.304071 0.487368 0.011727
v -0.185418 0.264873 0.011727
v -0.292010 0.148481 0.011727
v -0.213220 -0.014486 0.011727
v -0.160020 -0.264997 0.011727
v -0.156653 -0.497999 0.011727
v -0.196385 -0.700697 0.011727
v -0.187630 -0.811811 0.011727
v -0.135777 -0.892621 0.011727
v -0.069280 -0.937812 0.011727
v 0.000000 -0.833993 0.011727
v -0.060252 -0.814941 0.011727
v -0.086612 -0.762168 0.011727
v -0.066368 -0.698894 0.011727
v 0.000000 -0.670586 0.011727
v -0.121444 0.079683 0.011727
v -0.070937 -0.186317 0.011727
v -0.054102 -0.580266 0.023104
v 0.000000 -0.886604 0.051515
v -0.102795 -0.853479 0.051515
v -0.147612 -0.761897 0.051515
v -0.112538 -0.611860 0.051515
v -0.104744 -0.364394 0.051515
v -0.145663 -0.056524 0.051515
v -0.221222 0.153918 0.051515
v -0.327237 0.381898 0.051515
v -0.398974 0.592341 0.051515
v -0.395077 0.742378 0.051515
v -0.315826 0.832401 0.051515
v -0.135921 0.847210 0.051515
v 0.185418 0.264873 -0.009188
v 0.138765 0.335290 -0.009188
v 0.000000 0.347150 -0.009188
v 0.121444 0.079683 -0.009188
v 0.070937 -0.186317 -0.009188
v 0.054102 -0.552883 -0.009188
v -0.185418 0.264873 -0.009188
v -0.138765 0.335290 -0.009188
v -0.121444 0.079683 -0.009188
v -0.070937 -0.186317 -0.009188
v -0.054102 -0.552883 -0.009188
v 0.450797 0.803594 -0.031055
v 0.382292 0.874039 -0.031055
v 0.242990 0.915881 -0.031055
v 0.473791 0.694479 -0.031055
v 0.449982 0.500454 -0.031054
v 0.230182 0.777951 -0.031054
v 0.317539 0.750112 -0.031054
v 0.339238 0.675874 -0.031054
v 0.304071 0.487368 -0.031054
v 0.185418 0.264873 -0.031054
v 0.292010 0.148481 -0.031054
v 0.213220 -0.014486 -0.031054
v 0.160020 -0.264997 -0.031054
v 0.156653 -0.497999 -0.031054
v 0.196385 -0.700697 -0.031054
v 0.187630 -0.811811 -0.031054
v 0.135777 -0.892621 -0.031054
v 0.069280 -0.937812 -0.031054
v 0.060252 -0.814941 -0.031054
v 0.086612 -0.762168 -0.031054
v 0.066368 -0.698894 -0.031054
v 0.121444 0.079683 -0.031054
v 0.070937 -0.186317 -0.031054
v 0.054102 -0.580266 -0.019677
v 0.102795 -0.853479 0.008734
v 0.147612 -0.761897 0.008734
v 0.112538 -0.611860 0.008734
v 0.104744 -0.364394 0.008734
v 0.145663 -0.056524 0.008734
v 0.221222 0.153918 0.008734
v 0.327237 0.381898 0.008734
v 0.398974 0.592341 0.008734
v 0.395077 0.742378 0.008734
v 0.315826 0.832401 0.008734
v 0.135921 0.847210 0.008734
v -0.450797 0.803594 -0.031055
v -0.382292 0.874039 -0.031055
v -0.242990 0.915881 -0.031055
v -0.473791 0.694479 -0.031055
v -0.449982 0.500454 -0.031054
v -0.230182 0.777951 -0.031054
v -0.317539 0.750112 -0.031054
v -0.339238 0.675874 -0.031054
v -0.304071 0.487368 -0.031054
v -0.185418 0.264873 -0.031054
v -0.292010 0.148481 -0.031054
v -0.213220 -0.014486 -0.031054
v -0.160020 -0.264997 -0.031054
v -0.156653 -0.497999 -0.031054
v -0.196385 -0.700697 -0.031054
v -0.187630 -0.811811 -0.031054
v -0.135777 -0.892621 -0.031054
v -0.069281 -0.937812 -0.031054
v -0.000000 -0.833993 -0.031054
v -0.060252 -0.814941 -0.031054
v -0.086612 -0.762168 -0.031054
v -0.066369 -0.698894 -0.031054
v -0.000000 -0.670586 -0.031054
v -0.121444 0.079683 -0.031054
v -0.070937 -0.186317 -0.031054
v -0.054102 -0.580266 -0.019677
v -0.000000 -0.886604 0.008734
v -0.102795 -0.853479 0.008734
v -0.147612 -0.761897 0.008734
v -0.112538 -0.611860 0.008734
v -0.104744 -0.364394 0.008734
v -0.145663 -0.056524 0.008734
v -0.221222 0.153918 0.008734
v -0.327237 0.381898 0.008734
v -0.398974 0.592341 0.008734
v -0.395077 0.742378 0.008734
v -0.315826 0.832401 0.008734
v -0.135921 0.847210 0.008734
v 0.185418 0.264873 -0.051969
v 0.138765 0.335290 -0.051969
v -0.000000 0.347150 -0.051969
v 0.121444 0.079683 -0.051969
v -0.185418 0.264873 -0.051969
v -0.138766 0.335290 -0.051969
v -0.121444 0.079683 -0.051969
vt 0.148204 0.908718
vt 0.367150 0.901840
vt 0.318347 0.941561
vt 0.197129 0.942643
vt 0.374420 0.965841
vt 0.146334 0.974161
vt 0.404734 0.922779
vt 0.434580 0.922905
vt 0.404199 0.873742
vt 0.434933 0.845831
vt 0.459840 0.875060
vt 0.464930 0.812145
vt 0.418052 0.813121
vt 0.429465 0.743341
vt 0.447467 0.699914
vt 0.386098 0.697901
vt 0.394637 0.644736
vt 0.379076 0.532419
vt 0.350131 0.538523
vt 0.343256 0.660771
vt 0.309564 0.504436
vt 0.351499 0.453130
vt 0.322693 0.435263
vt 0.289663 0.374910
vt 0.328062 0.337693
vt 0.301513 0.295066
vt 0.276111 0.199650
vt 0.320005 0.231060
vt 0.295882 0.183027
vt 0.321193 0.139998
vt 0.299049 0.119353
vt 0.313029 0.095861
vt 0.296015 0.064292
vt 0.283826 0.084833
vt 0.275065 0.047354
vt 0.254195 0.071867
vt 0.233251 0.046143
vt 0.254035 0.095302
vt 0.270347 0.103175
vt 0.278513 0.122730
vt 0.274104 0.147831
vt 0.254948 0.158822
vt 0.233945 0.202324
vt 0.169580 0.650884
vt 0.199773 0.505200
vt 0.206767 0.508041
vt 0.182352 0.672359
vt 0.268371 0.221060
vt 0.241058 0.220144
vt 0.213411 0.184447
vt 0.235310 0.147444
vt 0.229471 0.122242
vt 0.208648 0.119159
vt 0.237036 0.101604
vt 0.223604 0.083587
vt 0.211201 0.062324
vt 0.193869 0.094945
vt 0.186534 0.140404
vt 0.189502 0.232080
vt 0.207756 0.295822
vt 0.218628 0.373832
vt 0.185739 0.433458
vt 0.302002 0.507215
vt 0.281891 0.376443
vt 0.181377 0.336571
vt 0.155733 0.450422
vt 0.155451 0.538164
vt 0.125457 0.531348
vt 0.112778 0.648469
vt 0.059564 0.703415
vt 0.124458 0.703309
vt 0.073654 0.759417
vt 0.071007 0.860253
vt 0.041774 0.827872
vt 0.052385 0.891873
vt 0.116090 0.928414
vt 0.081955 0.937437
vt 0.109315 0.878234
vt 0.096368 0.835671
vt 0.226302 0.375532
vt 0.259620 0.676236
vt 0.307825 0.692569
vt 0.336349 0.665421
vt 0.211389 0.692800
vt 0.874572 0.906050
vt 0.793315 0.952827
vt 0.655394 0.948239
vt 0.615077 0.907544
vt 0.890571 0.978361
vt 0.627327 0.984462
vt 0.576226 0.939716
vt 0.544093 0.966330
vt 0.577995 0.894519
vt 0.540226 0.894704
vt 0.512288 0.929867
vt 0.499242 0.873034
vt 0.568261 0.858715
vt 0.535748 0.817936
vt 0.505714 0.770589
vt 0.581570 0.762391
vt 0.563052 0.706403
vt 0.568305 0.582332
vt 0.604751 0.585980
vt 0.629436 0.687689
vt 0.658654 0.558009
vt 0.605184 0.506923
vt 0.641850 0.485516
vt 0.684150 0.415804
vt 0.626922 0.370587
vt 0.660235 0.316431
vt 0.686988 0.198661
vt 0.629220 0.243162
vt 0.656346 0.182325
vt 0.614106 0.135128
vt 0.642835 0.104565
vt 0.618592 0.076484
vt 0.642153 0.032322
vt 0.662118 0.057668
vt 0.673255 0.006505
vt 0.707214 0.038690
vt 0.739021 0.004019
vt 0.708149 0.071112
vt 0.684344 0.080152
vt 0.673972 0.105320
vt 0.682045 0.136178
vt 0.711017 0.150404
vt 0.737815 0.197077
vt 0.810921 0.678135
vt 0.802241 0.682219
vt 0.776700 0.556786
vt 0.785679 0.553561
vt 0.739200 0.134910
vt 0.767447 0.178867
vt 0.745036 0.103081
vt 0.776183 0.099979
vt 0.732678 0.078893
vt 0.753564 0.054472
vt 0.771891 0.027503
vt 0.798619 0.069983
vt 0.806963 0.128645
vt 0.797940 0.237822
vt 0.771099 0.312636
vt 0.752843 0.412694
vt 0.798714 0.479874
vt 0.807241 0.364502
vt 0.836545 0.499097
vt 0.825138 0.588464
vt 0.860363 0.577887
vt 0.888354 0.699002
vt 0.956287 0.750937
vt 0.874935 0.761935
vt 0.935614 0.803081
vt 0.977249 0.851277
vt 0.945451 0.878991
vt 0.975111 0.905085
vt 0.948081 0.939927
vt 0.918635 0.930080
vt 0.908482 0.886127
vt 0.911383 0.849221
vt 0.667925 0.560737
vt 0.724689 0.706367
vt 0.661934 0.711721
vt 0.638030 0.691508
vt 0.782434 0.703024
vt 0.306351 0.050014
vt 0.326171 0.088308
vt 0.335062 0.138015
vt 0.334436 0.230353
vt 0.342387 0.334307
vt 0.365656 0.446248
vt 0.393024 0.522877
vt 0.460998 0.686118
vt 0.484637 0.811324
vt 0.479568 0.886425
vt 0.449118 0.945100
vt 0.380463 0.992995
vt 0.142139 0.994797
vt 0.068969 0.961616
vt 0.033166 0.905858
vt 0.021242 0.829405
vt 0.042480 0.696240
vt 0.110816 0.521220
vt 0.141424 0.442480
vt 0.167229 0.332539
vt 0.175145 0.231247
vt 0.172376 0.138565
vt 0.180092 0.087181
vt 0.200268 0.046936
vt 0.228485 0.024515
vt 0.280172 0.028149
vt 0.239958 0.123275
vt 0.243671 0.137410
vt 0.244371 0.112981
vt 0.253711 0.108633
vt 0.263404 0.112902
vt 0.268288 0.124097
vt 0.265967 0.138380
vt 0.254941 0.145506
vt 0.337767 0.683510
vt 0.337728 0.694895
vt 0.313285 0.712480
vt 0.259693 0.700540
vt 0.207882 0.710321
vt 0.188845 0.696255
vt 0.173993 0.679300
vt 0.138295 0.709810
vt 0.367958 0.714299
vt 0.398638 0.829265
vt 0.390762 0.859270
vt 0.360484 0.877331
vt 0.152684 0.884264
vt 0.122016 0.862150
vt 0.111681 0.832210
vn 0.121200 -0.846700 0.518000
vn -0.121200 -0.846700 0.518000
vn -0.000300 0.003800 1.000000
vn 0.000300 0.003800 1.000000
vn 0.119300 0.865600 0.486400
vn -0.119300 0.865600 0.486400
vn 0.040700 0.094700 0.994700
vn 0.470000 0.740700 0.479900
vn -0.586200 -0.559700 0.585700
vn 0.067700 0.013500 0.997600
vn 0.768800 0.418700 0.483400
vn 0.877700 0.032900 0.478100
vn -0.848900 -0.042300 0.526800
vn 0.041500 0.003800 0.999100
vn 0.838200 -0.234500 0.492300
vn -0.816700 0.287100 0.500500
vn 0.026800 -0.001300 0.999600
vn 0.789700 -0.369200 0.489900
vn 0.002700 -0.023400 0.999700
vn -0.790000 0.346500 0.505800
vn -0.842900 0.240500 0.481400
vn 0.838900 -0.284400 0.464000
vn -0.043800 -0.003800 0.999000
vn -0.887300 0.109000 0.448000
vn 0.900900 -0.104200 0.421300
vn -0.031900 0.020100 0.999300
vn -0.377000 0.151400 0.913800
vn 0.889000 0.066500 0.453000
vn 0.056200 -0.003800 0.998400
vn 0.890700 0.074100 0.448600
vn 0.158300 -0.036000 0.986700
vn 0.858900 -0.300400 0.414800
vn 0.628000 -0.633400 0.452000
vn 0.094400 -0.085100 0.991900
vn 0.264000 -0.858300 0.439900
vn 0.000000 -0.082500 0.996600
vn -0.264000 -0.858300 0.439900
vn 0.000000 0.875900 0.482400
vn -0.547800 0.658800 0.515600
vn -0.838800 0.083600 0.537900
vn -0.660500 -0.428100 0.616700
vn 0.000000 -0.663000 0.748600
vn 0.377000 0.151400 0.913800
vn 0.790000 0.346500 0.505800
vn 0.842900 0.240500 0.481400
vn 0.966400 0.257200 0.000000
vn 0.717800 0.696300 -0.000000
vn 0.000000 0.414200 0.910200
vn -0.057700 -0.002000 0.998300
vn 0.660500 -0.428100 0.616700
vn 0.838800 0.083600 0.537900
vn -0.156000 -0.038600 0.987000
vn 0.547800 0.658800 0.515600
vn -0.094400 -0.085100 0.991900
vn -0.628000 -0.633400 0.452000
vn -0.858900 -0.300400 0.414800
vn -0.889700 0.071400 0.450900
vn -0.889400 0.067600 0.452100
vn 0.031900 0.020100 0.999300
vn 0.887300 0.109000 0.448000
vn 0.043800 -0.003800 0.999000
vn -0.966400 0.257200 0.000000
vn -0.993200 0.115900 0.011500
vn -0.900900 -0.104200 0.421300
vn -0.838900 -0.284400 0.464000
vn -0.002700 -0.023400 0.999700
vn -0.789700 -0.369200 0.489900
vn -0.026800 -0.001300 0.999600
vn -0.838200 -0.234500 0.492300
vn 0.816700 0.287100 0.500500
vn -0.041500 0.003800 0.999100
vn -0.067700 0.013500 0.997600
vn -0.877700 0.032900 0.478100
vn -0.768800 0.418700 0.483400
vn -0.040700 0.094700 0.994700
vn -0.470000 0.740700 0.479900
vn 0.586200 -0.559700 0.585700
vn 0.848900 -0.042300 0.526800
vn 0.000000 0.000000 1.000000
vn -0.998700 0.044600 0.022900
vn 0.993200 0.115900 0.011500
vn -0.717800 0.696300 0.000000
vn 0.998700 0.044600 0.022900
vn -0.061200 0.504900 -0.861000
vn -0.000300 -0.003800 -1.000000
vn 0.000300 -0.003800 -1.000000
vn 0.061200 0.504900 -0.861000
vn 0.057100 -0.485400 -0.872400
vn -0.057100 -0.485400 -0.872400
vn -0.040700 -0.094700 -0.994700
vn -0.272600 -0.387500 -0.880600
vn 0.361400 0.334200 -0.870400
vn -0.067700 -0.013500 -0.997600
vn -0.397200 -0.228400 -0.888900
vn -0.500500 -0.013000 -0.865600
vn 0.514800 0.025500 -0.856900
vn -0.041500 -0.003800 -0.999100
vn -0.457100 0.128800 -0.880000
vn 0.509300 -0.179900 -0.841600
vn -0.026800 0.001300 -0.999600
vn -0.467100 0.219800 -0.856400
vn -0.002700 0.023400 -0.999700
vn 0.425600 -0.189000 -0.885000
vn 0.493200 -0.159900 -0.855100
vn -0.565400 0.188900 -0.802900
vn 0.043800 0.003800 -0.999000
vn 0.292200 -0.069900 -0.953800
vn -0.657000 0.079200 -0.749700
vn 0.031900 -0.020100 -0.999300
vn 0.226300 0.047700 -0.972900
vn -0.610500 -0.031600 -0.791400
vn -0.056200 0.003800 -0.998400
vn -0.564300 -0.074400 -0.822200
vn -0.158300 0.036000 -0.986700
vn -0.574600 0.215000 -0.789700
vn -0.370500 0.401300 -0.837700
vn -0.094400 0.085100 -0.991900
vn -0.162100 0.527400 -0.834000
vn 0.000000 0.082500 -0.996600
vn 0.162100 0.527400 -0.834000
vn 0.000000 0.284400 -0.958700
vn -0.178100 0.175800 -0.968100
vn -0.283700 -0.012200 -0.958800
vn -0.126400 -0.373300 -0.919000
vn 0.000000 -0.535600 -0.844400
vn -0.226300 0.047700 -0.972900
vn -0.810900 0.585200 0.000000
vn -0.992000 0.125900 0.000000
vn -0.965900 -0.259000 0.000000
vn -0.966400 -0.257200 0.000000
vn 0.126400 -0.373300 -0.919000
vn 0.057700 0.002000 -0.998300
vn 0.283700 -0.012200 -0.958800
vn 0.156000 0.038600 -0.987000
vn 0.178100 0.175800 -0.968200
vn 0.094400 0.085100 -0.991900
vn 0.370500 0.401300 -0.837700
vn 0.574600 0.215000 -0.789700
vn 0.560400 -0.069300 -0.825300
vn 0.612000 -0.033500 -0.790200
vn -0.031900 -0.020100 -0.999300
vn -0.292200 -0.069900 -0.953800
vn -0.043800 0.003800 -0.999000
vn -0.493200 -0.159900 -0.855100
vn 0.657000 0.079200 -0.749700
vn 0.565400 0.188900 -0.802900
vn 0.002700 0.023400 -0.999700
vn 0.467100 0.219800 -0.856400
vn -0.425600 -0.189000 -0.885000
vn 0.026800 0.001300 -0.999600
vn 0.457100 0.128800 -0.880000
vn -0.509300 -0.179900 -0.841600
vn 0.041500 -0.003800 -0.999100
vn 0.500500 -0.013000 -0.865600
vn 0.067700 -0.013500 -0.997600
vn 0.397200 -0.228400 -0.888900
vn 0.272600 -0.387500 -0.880600
vn 0.040700 -0.094700 -0.994700
vn -0.361400 0.334200 -0.870400
vn -0.514800 0.025500 -0.856900
vn -0.000000 -0.033000 -0.999500
vn -0.000000 -0.000000 -1.000000
vn 0.982400 -0.186500 0.000000
vn 0.965900 -0.259000 0.000000
vn 0.966400 -0.257200 0.000000
vn 0.992000 0.125900 0.000000
vn 0.810900 0.585200 -0.000000
vn -0.982400 -0.186500 0.000000
vn 0.716400 -0.697700 -0.000000
vn 0.947800 -0.318900 -0.000000
vn 0.998300 0.057400 -0.000000
vn 0.996000 0.089400 -0.000000
vn 0.993800 -0.111600 -0.000000
vn 0.946100 -0.323900 -0.000000
vn 0.906400 -0.422400 -0.000000
vn 0.963200 -0.268600 -0.000000
vn 0.999100 0.042800 -0.000000
vn 0.882500 0.470200 -0.000000
vn 0.518900 0.854800 -0.000000
vn 0.145400 0.989400 -0.000000
vn -0.145400 0.989400 0.000000
vn -0.518900 0.854800 0.000000
vn -0.882500 0.470200 0.000000
vn -0.999100 0.042800 0.000000
vn -0.963200 -0.268600 0.000000
vn -0.906400 -0.422400 0.000000
vn -0.946100 -0.323900 0.000000
vn -0.993800 -0.111600 0.000000
vn -0.996000 0.089400 0.000000
vn -0.998300 0.057400 0.000000
vn -0.947800 -0.318900 0.000000
vn -0.716400 -0.697700 0.000000
vn -0.294000 -0.955800 0.000000
vn 0.294000 -0.955800 -0.000000
vn 0.510200 0.860000 -0.000000
vn 0.000000 1.000000 -0.000000
vn -0.510200 0.860000 0.000000
vn 0.943700 0.330800 -0.000000
vn -0.943700 0.330800 0.000000
vn -0.998800 -0.049900 0.000000
vn -0.715600 -0.698500 0.000000
vn -0.153600 -0.988100 0.000000
vn 0.153600 -0.988100 -0.000000
vn 0.715600 -0.698500 -0.000000
vn 0.998800 -0.049900 -0.000000
usemtl opener
s 1
f 41/1/1 6/2/2 35/3/3 73/4/4
f 73/4/4 35/3/3 3/5/5 38/6/6
f 35/3/3 6/2/2 34/7/7
f 34/7/7 3/5/5 35/3/3
f 3/5/5 34/7/7 2/8/8
f 6/2/2 7/9/9 34/7/7
f 34/7/7 7/9/9 33/10/10
f 1/11/11 2/8/8 34/7/7 33/10/10
f 4/12/12 1/11/11 33/10/10
f 7/9/9 8/13/13 33/10/10
f 33/10/10 8/13/13 32/14/14
f 5/15/15 4/12/12 33/10/10 32/14/14
f 8/13/13 9/16/16 32/14/14
f 32/14/14 9/16/16 31/17/17
f 32/14/14 31/17/17 5/15/15
f 5/15/15 31/17/17 11/18/18
f 31/17/17 30/19/19 11/18/18
f 9/16/16 10/20/20 31/17/17
f 31/17/17 10/20/20 30/19/19
f 10/20/20 22/21/21 30/19/19
f 11/18/18 30/19/19 12/22/22
f 30/19/19 29/23/23 12/22/22
f 30/19/19 22/21/21 29/23/23
f 22/21/21 23/24/24 29/23/23
f 12/22/22 29/23/23 13/25/25
f 29/23/23 28/26/26 13/25/25
f 29/23/23 23/24/24 28/26/26
f 23/24/24 24/27/27 28/26/26
f 13/25/25 28/26/26 14/28/28
f 28/26/26 24/27/27 27/29/29
f 28/26/26 27/29/29 14/28/28
f 14/28/28 27/29/29 15/30/30
f 27/29/29 26/31/31 15/30/30
f 15/30/30 26/31/31 16/32/32
f 17/33/33 16/32/32 26/31/31 25/34/34
f 18/35/35 17/33/33 25/34/34 62/36/36
f 53/37/37 18/35/35 62/36/36
f 54/38/38 62/36/36 25/34/34 19/39/39
f 19/39/39 25/34/34 26/31/31 20/40/40
f 20/40/40 26/31/31 27/29/29 21/41/41
f 58/42/42 21/41/41 27/29/29 24/27/27
f 24/27/27 61/43/43 58/42/42
f 45/44/44 59/45/45 82/46/46 80/47/47
f 61/43/43 24/27/27 79/48/48 84/49/48
f 58/42/42 61/43/43 65/50/49 57/51/50
f 56/52/51 57/51/50 65/50/49 64/53/52
f 55/54/53 56/52/51 64/53/52 63/55/54
f 54/38/38 55/54/53 63/55/54 62/36/36
f 53/37/37 62/36/36 63/55/54 52/56/55
f 52/56/55 63/55/54 64/53/52 51/57/56
f 51/57/56 64/53/52 50/58/57
f 50/58/57 64/53/52 65/50/49 49/59/58
f 65/50/49 61/43/43 66/60/59
f 61/43/43 60/61/60 66/60/59
f 66/60/59 60/61/60 67/62/61
f 60/61/60 59/45/45 67/62/61
f 23/24/24 22/21/21 77/63/62 78/64/63
f 65/50/49 66/60/59 49/59/58
f 49/59/58 66/60/59 48/65/64
f 66/60/59 67/62/61 48/65/64
f 48/65/64 67/62/61 47/66/65
f 67/62/61 59/45/45 68/67/66
f 67/62/61 68/67/66 47/66/65
f 47/66/65 68/67/66 46/68/67
f 59/45/45 45/44/44 68/67/66
f 68/67/66 45/44/44 69/69/68
f 68/67/66 69/69/68 46/68/67
f 46/68/67 69/69/68 40/70/69
f 45/44/44 44/71/70 69/69/68
f 69/69/68 44/71/70 70/72/71
f 69/69/68 70/72/71 40/70/69
f 40/70/69 70/72/71 71/73/72 39/74/73
f 39/74/73 71/73/72 36/75/74
f 36/75/74 71/73/72 72/76/75 37/77/76
f 37/77/76 72/76/75 38/6/6
f 72/76/75 73/4/4 38/6/6
f 73/4/4 72/76/75 41/1/1
f 41/1/1 72/76/75 42/78/77
f 72/76/75 71/73/72 42/78/77
f 42/78/77 71/73/72 43/79/78
f 44/71/70 43/79/78 70/72/71
f 71/73/72 70/72/71 43/79/78
f 79/48/48 78/64/79 83/80/79 84/49/48
f 78/64/79 77/63/79 82/46/79 83/80/79
f 77/63/79 76/81/79 82/46/79
f 75/82/79 76/81/79 77/63/79 74/83/79
f 81/84/79 80/47/79 82/46/79 76/81/79
f 24/27/27 23/24/24 78/64/63 79/48/80
f 59/45/45 60/61/60 83/80/81 82/46/46
f 22/21/21 10/20/20 74/83/82 77/63/62
f 60/61/60 61/43/43 84/49/83 83/80/81
f 125/85/84 157/86/85 119/87/86 90/88/87
f 157/86/85 122/89/88 87/90/89 119/87/86
f 119/87/86 118/91/90 90/88/87
f 118/91/90 119/87/86 87/90/89
f 87/90/89 86/92/91 118/91/90
f 90/88/87 118/91/90 91/93/92
f 118/91/90 117/94/93 91/93/92
f 85/95/94 117/94/93 118/91/90 86/92/91
f 88/96/95 117/94/93 85/95/94
f 91/93/92 117/94/93 92/97/96
f 117/94/93 116/98/97 92/97/96
f 89/99/98 116/98/97 117/94/93 88/96/95
f 92/97/96 116/98/97 93/100/99
f 116/98/97 115/101/100 93/100/99
f 116/98/97 89/99/98 115/101/100
f 89/99/98 95/102/101 115/101/100
f 115/101/100 95/102/101 114/103/102
f 93/100/99 115/101/100 94/104/103
f 115/101/100 114/103/102 94/104/103
f 94/104/103 114/103/102 106/105/104
f 95/102/101 96/106/105 114/103/102
f 114/103/102 96/106/105 113/107/106
f 114/103/102 113/107/106 106/105/104
f 106/105/104 113/107/106 107/108/107
f 96/106/105 97/109/108 113/107/106
f 113/107/106 97/109/108 112/110/109
f 113/107/106 112/110/109 107/108/107
f 107/108/107 112/110/109 108/111/110
f 97/109/108 98/112/111 112/110/109
f 112/110/109 111/113/112 108/111/110
f 112/110/109 98/112/111 111/113/112
f 98/112/111 99/114/113 111/113/112
f 111/113/112 99/114/113 110/115/114
f 99/114/113 100/116/115 110/115/114
f 101/117/116 109/118/117 110/115/114 100/116/115
f 102/119/118 146/120/119 109/118/117 101/117/116
f 137/121/120 146/120/119 102/119/118
f 138/122/121 103/123/122 109/118/117 146/120/119
f 103/123/122 104/124/123 110/115/114 109/118/117
f 104/124/123 105/125/124 111/113/112 110/115/114
f 142/126/125 108/111/110 111/113/112 105/125/124
f 108/111/110 142/126/125 145/127/126
f 129/128/127 162/129/128 164/130/129 143/131/130
f 142/126/125 141/132/131 149/133/132 145/127/126
f 140/134/133 148/135/134 149/133/132 141/132/131
f 139/136/135 147/137/136 148/135/134 140/134/133
f 138/122/121 146/120/119 147/137/136 139/136/135
f 137/121/120 136/138/137 147/137/136 146/120/119
f 136/138/137 135/139/138 148/135/134 147/137/136
f 135/139/138 134/140/139 148/135/134
f 134/140/139 133/141/140 149/133/132 148/135/134
f 149/133/132 150/142/141 145/127/126
f 145/127/126 150/142/141 144/143/142
f 150/142/141 151/144/143 144/143/142
f 144/143/142 151/144/143 143/131/144
f 149/133/132 133/141/140 150/142/141
f 133/141/140 132/145/145 150/142/141
f 150/142/141 132/145/145 151/144/143
f 132/145/145 131/146/146 151/144/143
f 151/144/143 152/147/147 143/131/144
f 151/144/143 131/146/146 152/147/147
f 131/146/146 130/148/148 152/147/147
f 143/131/144 152/147/147 129/128/149
f 152/147/147 153/149/150 129/128/149
f 152/147/147 130/148/148 153/149/150
f 130/148/148 124/150/151 153/149/150
f 129/128/149 153/149/150 128/151/152
f 153/149/150 154/152/153 128/151/152
f 153/149/150 124/150/151 154/152/153
f 124/150/151 123/153/154 155/154/155 154/152/153
f 123/153/154 120/155/156 155/154/155
f 120/155/156 121/156/157 156/157/158 155/154/155
f 121/156/157 122/89/88 156/157/158
f 156/157/158 122/89/88 157/86/85
f 157/86/85 125/85/84 156/157/158
f 125/85/84 126/158/159 156/157/158
f 156/157/158 126/158/159 155/154/155
f 126/158/159 127/159/160 155/154/155
f 128/151/152 154/152/153 127/159/160
f 155/154/155 127/159/160 154/152/153
f 108/111/110 145/127/126 144/143/142 107/108/107
f 161/160/161 164/130/161 160/161/162
f 159/162/162 158/163/162 161/160/161 160/161/162
f 163/164/162 160/161/162 164/130/161 162/129/162
f 164/130/161 161/160/161 107/108/107 144/143/142
f 107/108/163 161/160/164 106/105/165
f 106/105/165 161/160/164 158/163/166 94/104/167
f 144/143/168 143/131/130 164/130/129
f 17/33/33 101/165/169 100/166/170 16/32/32
f 16/32/32 100/166/170 99/167/171 15/30/30
f 15/30/30 99/167/171 98/168/172 14/28/28
f 14/28/28 98/168/172 97/169/173 13/25/25
f 13/25/25 97/169/173 96/170/174 12/22/22
f 12/22/22 96/170/174 95/171/175 11/18/18
f 11/18/18 95/171/175 89/172/176 5/15/15
f 5/15/15 89/172/176 88/173/177 4/12/12
f 4/12/12 88/173/177 85/174/178 1/11/11
f 1/11/11 85/174/178 86/175/179 2/8/8
f 2/8/8 86/175/179 87/176/180 3/5/5
f 38/6/6 3/5/5 87/176/180 122/177/181
f 37/77/76 38/6/6 122/177/181 121/178/182
f 36/75/74 37/77/76 121/178/182 120/179/183
f 39/74/73 36/75/74 120/179/183 123/180/184
f 40/70/69 39/74/73 123/180/184 124/181/185
f 46/68/67 40/70/69 124/181/185 130/182/186
f 47/66/65 46/68/67 130/182/186 131/183/187
f 48/65/64 47/66/65 131/183/187 132/184/188
f 49/59/58 48/65/64 132/184/188 133/185/189
f 50/58/57 49/59/58 133/185/189 134/186/190
f 51/57/56 50/58/57 134/186/190 135/187/191
f 52/56/55 51/57/56 135/187/191 136/188/192
f 53/37/37 52/56/55 136/188/192 137/189/193
f 53/37/37 137/189/193 102/190/194 18/35/35
f 18/35/35 102/190/194 101/165/169 17/33/33
f 57/51/50 56/52/51 140/191/133 141/192/131
f 56/52/51 55/54/53 139/193/135 140/191/133
f 55/54/53 54/38/38 138/194/121 139/193/135
f 19/39/39 103/195/122 138/194/121 54/38/38
f 20/40/40 104/196/123 103/195/122 19/39/39
f 21/41/41 105/197/124 104/196/123 20/40/40
f 58/42/42 142/198/125 105/197/124 21/41/41
f 58/42/42 57/51/50 141/192/131 142/198/125
f 74/83/82 94/199/167 75/82/195
f 158/200/166 159/201/195 75/82/195 94/199/167
f 76/81/196 75/82/195 159/201/195 160/202/196
f 76/81/196 160/202/196 163/203/197 81/84/197
f 163/203/197 162/204/128 129/205/127 81/84/197
f 81/84/197 129/205/127 80/47/47
f 44/71/70 45/44/44 80/47/47 129/205/127 128/206/198
f 10/20/20 9/16/16 93/207/199 94/199/167 74/83/82
f 9/16/16 8/13/13 92/208/200 93/207/199
f 8/13/13 7/9/9 91/209/201 92/208/200
f 7/9/9 6/2/2 90/210/202 91/209/201
f 41/1/1 125/211/203 90/210/202 6/2/2
f 42/78/77 126/212/204 125/211/203 41/1/1
f 43/79/78 127/213/205 126/212/204 42/78/77
f 44/71/70 128/206/198 127/213/205 43/79/78
