# Blender v2.76 (sub 0) OBJ File: 'items.blend'
# www.blender.org
mtllib pencil.mtl
o pencil_Cylinder.002
v -0.000000 -1.786263 -0.104955
v -0.000000 1.620995 -0.104955
v 0.082057 -1.786263 -0.065439
v 0.082057 1.620995 -0.065439
v 0.102324 -1.786263 0.023355
v 0.102324 1.620995 0.023355
v 0.045538 -1.786263 0.094562
v 0.045538 1.620995 0.094562
v -0.045538 -1.786263 0.094562
v -0.045538 1.620995 0.094562
v -0.102324 -1.786263 0.023355
v -0.102324 1.620995 0.023355
v -0.082057 -1.786263 -0.065439
v -0.082057 1.620995 -0.065439
v 0.085928 1.638264 -0.068519
v -0.000001 1.638264 -0.109901
v 0.107151 1.638264 0.024464
v 0.047686 1.638264 0.099030
v -0.047688 1.638264 0.099030
v -0.107153 1.638264 0.024464
v -0.085931 1.638264 -0.068519
v 0.085928 2.049235 -0.068519
v -0.000001 2.049235 -0.109901
v 0.107151 2.049235 0.024464
v 0.047686 2.049235 0.099030
v -0.047689 2.049235 0.099030
v -0.107153 2.049235 0.024464
v -0.085931 2.049235 -0.068519
v -0.000145 2.076357 0.000773
v 0.000740 -2.126164 0.001783
vt 0.612706 0.139993
vt 0.604202 0.827148
vt 0.332421 0.827148
vt 0.335865 0.139993
vt 0.063522 0.827148
vt 0.043026 0.139993
vt 1.989902 0.139993
vt 1.975412 0.827148
vt 1.705574 0.827148
vt 1.689315 0.139993
vt 1.429436 0.827148
vt 1.411539 0.139993
vt 1.150898 0.827148
vt 1.143922 0.139993
vt 0.328959 0.828838
vt 0.051901 0.828965
vt 0.879866 0.139993
vt 0.875627 0.827148
vt 0.602539 0.828838
vt 0.874703 0.828838
vt 0.874184 0.998659
vt 0.596195 0.998659
vt 1.430011 0.828838
vt 1.150680 0.828838
vt 1.984628 0.828838
vt 1.707745 0.828838
vt 0.554417 0.969363
vt 0.494431 0.982562
vt 0.434781 0.969363
vt 1.432724 0.998659
vt 1.152920 0.998659
vt 1.983253 0.998659
vt 1.712183 0.998659
vt 0.317396 0.998659
vt 0.037108 0.998659
vt 0.629029 0.979373
vt 0.602418 0.991859
vt 0.494596 0.997417
vt 0.386781 0.991859
vt 0.360176 0.979373
vt 1.024799 0.001396
vn -0.000000 0.000000 -1.000000
vn 0.781800 0.000000 -0.623500
vn 0.974900 0.000000 0.222500
vn 0.433900 0.000000 0.901000
vn -0.433900 0.000000 0.901000
vn -0.974900 0.000000 0.222500
vn 0.937200 -0.275700 0.213800
vn 0.751600 -0.275400 -0.599400
vn 0.751600 -0.275400 -0.599300
vn 0.937100 -0.275700 0.214000
vn -0.781800 0.000000 -0.623500
vn -0.655300 0.545200 -0.522800
vn 0.000000 0.545500 -0.838100
vn -0.937100 -0.275800 0.213800
vn -0.417100 -0.276000 0.866000
vn -0.417000 -0.276000 0.866000
vn -0.937100 -0.275800 0.214000
vn 0.000000 -0.275300 -0.961400
vn 0.417100 -0.276000 0.866000
vn 0.417000 -0.276000 0.866000
vn -0.751500 -0.275500 -0.599400
vn -0.751600 -0.275500 -0.599300
vn 0.364000 0.544500 0.755600
vn -0.000300 1.000000 0.001800
vn -0.364000 0.544500 0.755700
vn -0.817600 0.544800 0.186400
vn 0.817500 0.544900 0.186400
vn 0.655200 0.545400 -0.522700
vn -0.753500 -0.266600 0.600900
vn 0.000000 -0.263300 0.964700
vn 0.754200 -0.263600 0.601400
vn 0.939500 -0.267200 -0.214400
vn 0.417600 -0.271400 -0.867200
vn 0.000200 -0.299600 -0.954100
vn -0.000500 -0.299600 -0.954100
vn -0.417400 -0.273100 -0.866700
vn -0.938500 -0.271000 -0.214200
usemtl pencil
s 1
f 1/1/1 2/2/1 4/3/2 3/4/2
f 3/4/2 4/3/2 6/5/3 5/6/3
f 5/7/3 6/8/3 8/9/4 7/10/4
f 7/10/4 8/9/4 10/11/5 9/12/5
f 9/12/5 10/11/5 12/13/6 11/14/6
f 6/5/7 4/3/8 15/15/9 17/16/10
f 13/17/11 14/18/11 2/2/1 1/1/1
f 11/14/6 12/13/6 14/18/11 13/17/11
f 16/19/1 21/20/11 28/21/12 23/22/13
f 12/13/14 10/11/15 19/23/16 20/24/17
f 4/3/8 2/2/18 16/19/18 15/15/9
f 8/9/19 6/8/7 17/25/10 18/26/20
f 14/18/21 12/13/14 20/24/17 21/20/22
f 10/11/15 8/9/19 18/26/20 19/23/16
f 2/2/18 14/18/21 21/20/22 16/19/18
f 25/27/23 29/28/24 26/29/25
f 20/24/6 19/23/5 26/30/25 27/31/26
f 18/26/4 17/25/3 24/32/27 25/33/23
f 15/15/2 16/19/1 23/22/13 22/34/28
f 21/20/11 20/24/6 27/31/26 28/21/12
f 19/23/5 18/26/4 25/33/23 26/30/25
f 17/16/3 15/15/2 22/34/28 24/35/27
f 24/36/27 29/28/24 25/27/23
f 22/37/28 29/28/24 24/36/27
f 23/38/13 29/28/24 22/37/28
f 28/39/12 29/28/24 23/38/13
f 27/40/26 29/28/24 28/39/12
f 26/29/25 29/28/24 27/40/26
f 11/14/29 30/41/29 9/12/29
f 9/12/30 30/41/30 7/10/30
f 7/10/31 30/41/31 5/7/31
f 5/6/32 30/41/32 3/4/32
f 3/4/33 30/41/34 1/1/35
f 1/1/35 30/41/34 13/17/36
f 13/17/37 30/41/37 11/14/37
